<?xml version="1.0" encoding="UTF-8"?> <svg xmlns="http://www.w3.org/2000/svg" width="34" height="34" viewBox="0 0 34 34" fill="none"><g clip-path="url(#clip0_2737_12076)"><g filter="url(#filter0_f_2737_12076)"><path fill-rule="evenodd" clip-rule="evenodd" d="M22.1656 4C26.065 4 29.2258 7.16332 29.2258 11.0602V22.1656C29.2258 26.065 26.0625 29.2258 22.1656 29.2258H11.0602C7.16079 29.2258 4 26.0625 4 22.1656V11.0602C4 7.16079 7.16332 4 11.0602 4H22.1656ZM16.6129 10.0542C12.9905 10.0542 10.0542 12.9905 10.0542 16.6129C10.0542 20.2353 12.9905 23.1716 16.6129 23.1716C20.2353 23.1716 23.1716 20.2353 23.1716 16.6129C23.1716 12.9905 20.2353 10.0542 16.6129 10.0542ZM16.6129 12.0723C17.2092 12.0723 17.7996 12.1897 18.3505 12.4179C18.9014 12.6461 19.402 12.9805 19.8236 13.4022C20.2453 13.8238 20.5797 14.3244 20.8079 14.8753C21.0361 15.4262 21.1535 16.0166 21.1535 16.6129C21.1535 17.2092 21.0361 17.7996 20.8079 18.3505C20.5797 18.9014 20.2453 19.402 19.8236 19.8236C19.402 20.2453 18.9014 20.5797 18.3505 20.8079C17.7996 21.0361 17.2092 21.1535 16.6129 21.1535C15.4086 21.1535 14.2537 20.6752 13.4022 19.8236C12.5506 18.9721 12.0723 17.8172 12.0723 16.6129C12.0723 15.4086 12.5506 14.2537 13.4022 13.4022C14.2537 12.5506 15.4086 12.0723 16.6129 12.0723ZM23.9284 7.53161C23.4601 7.53161 23.0109 7.71765 22.6798 8.04881C22.3486 8.37996 22.1626 8.8291 22.1626 9.29742C22.1626 9.76574 22.3486 10.2149 22.6798 10.546C23.0109 10.8772 23.4601 11.0632 23.9284 11.0632C24.3967 11.0632 24.8458 10.8772 25.177 10.546C25.5082 10.2149 25.6942 9.76574 25.6942 9.29742C25.6942 8.8291 25.5082 8.37996 25.177 8.04881C24.8458 7.71765 24.3967 7.53161 23.9284 7.53161Z" fill="black"></path></g></g><defs><filter id="filter0_f_2737_12076" x="-0.387097" y="-0.387097" width="33.9998" height="34" filterUnits="userSpaceOnUse" color-interpolation-filters="sRGB"><feFlood flood-opacity="0" result="BackgroundImageFix"></feFlood><feBlend mode="normal" in="SourceGraphic" in2="BackgroundImageFix" result="shape"></feBlend><feGaussianBlur stdDeviation="2.19355" result="effect1_foregroundBlur_2737_12076"></feGaussianBlur></filter><clipPath id="clip0_2737_12076"><rect width="34" height="34" fill="white"></rect></clipPath></defs></svg> 