<?xml version="1.0" encoding="UTF-8"?> <svg xmlns="http://www.w3.org/2000/svg" width="340" height="200" viewBox="0 0 340 200" fill="none"><path d="M320 182H183.976C183.991 181.669 184 181.335 184 181C184 169.402 174.598 160 163 160C151.402 160 142 169.402 142 181C142 181.335 142.009 181.669 142.024 182H20L20 18L142.215 18C142.075 18.9799 142 19.9813 142 21C142 32.598 151.402 42 163 42C174.598 42 184 32.598 184 21C184 19.9813 183.925 18.9799 183.785 18L320 18V182Z" fill="#ECEAD7"></path><path d="M63 65H275" stroke="#F6862C" stroke-width="8" stroke-linecap="round"></path><path d="M63 138H275" stroke="#F6862C" stroke-width="8" stroke-linecap="round"></path></svg> 