<?xml version="1.0" encoding="UTF-8"?> <svg xmlns="http://www.w3.org/2000/svg" width="28" height="28" viewBox="0 0 28 28" fill="none"><path d="M11.0705 0.0035L11.921 0H16.079L16.9307 0.0035L17.997 0.0151667L18.5022 0.0233333L18.9898 0.0361667L19.46 0.0525L19.9127 0.0711667L20.349 0.0956667L20.769 0.124833L21.1715 0.159833L21.56 0.198333C23.59 0.427 24.9818 0.917 26.0318 1.967C27.0818 3.017 27.5718 4.40767 27.8005 6.43883L27.8402 6.82733L27.874 7.231L27.9032 7.651L27.9265 8.08617L27.9557 8.77217L27.9697 9.2505L27.9848 10.0018L27.9953 11.0693L28 12.2127L27.9988 16.0778L27.9953 16.9295L27.9837 17.9958L27.9755 18.501L27.9627 18.9887L27.9463 19.4588L27.9277 19.9115L27.9032 20.3478L27.874 20.7678L27.839 21.1703L27.8005 21.5588C27.5718 23.5888 27.0818 24.9807 26.0318 26.0307C24.9818 27.0807 23.5912 27.5707 21.56 27.7993L21.1715 27.839L20.7678 27.8728L20.3478 27.902L19.9127 27.9253L19.2267 27.9545L18.7483 27.9685L17.997 27.9837L16.9295 27.9942L15.7862 27.9988L11.921 27.9977L11.0693 27.9942L10.003 27.9825L9.49783 27.9743L9.01017 27.9615L8.54 27.9452L8.08733 27.9265L7.651 27.902L7.231 27.8728L6.8285 27.8378L6.44 27.7993C4.41 27.5707 3.01817 27.0807 1.96817 26.0307C0.918167 24.9807 0.428167 23.59 0.1995 21.5588L0.159833 21.1703L0.126 20.7667L0.0968333 20.3467L0.0735 19.9115L0.0443333 19.2255L0.0303333 18.7472L0.0151667 17.9958L0.00466667 16.9283L0 15.785L0.00116667 11.9198L0.00466667 11.0682L0.0163333 10.0018L0.0245 9.49667L0.0373333 9.009L0.0536667 8.53883L0.0723333 8.08617L0.0968333 7.64983L0.126 7.22983L0.161 6.82733L0.1995 6.43883C0.428167 4.40883 0.918167 3.017 1.96817 1.967C3.01817 0.917 4.40883 0.427 6.44 0.198333L6.8285 0.158667L7.23217 0.124833L7.65217 0.0956667L8.08733 0.0723333L8.77333 0.0431667L9.25167 0.0291667L10.003 0.014L11.0705 0.0035ZM7.92167 8.5155H4.725C4.87667 15.7955 8.51667 20.1705 14.8983 20.1705H15.26V16.0055C17.605 16.2388 19.3783 17.9538 20.09 20.1705H23.4033C22.4933 16.8572 20.1017 15.0255 18.6083 14.3255C20.1017 13.4622 22.2017 11.3622 22.7033 8.5155H19.6933C19.04 10.8255 17.1033 12.9255 15.26 13.1238V8.5155H12.25V16.5888C10.3833 16.1222 8.02667 13.8588 7.92167 8.5155Z" fill="black"></path></svg> 